<svg width="126" height="59" viewBox="0 0 126 59" fill="none" xmlns="http://www.w3.org/2000/svg">
<g clip-path="url(#clip0_110_11)">
<path fill-rule="evenodd" clip-rule="evenodd" d="M25.0063 0.664734H25.0242H25.078C36.3075 2.01513 44.7745 11.6119 44.7745 22.9733C44.7745 34.1726 36.6125 43.4634 25.9391 45.1739V46.3082H18.8354V45.1739C8.16202 43.4634 0 34.1726 0 22.9733C0 14.2227 5.05866 6.2824 12.9516 2.5913L13.8306 2.17718L16.8442 8.71312L15.9653 9.12724C10.6196 11.6299 7.1754 17.0135 7.1754 22.9733C7.1754 30.0854 12.0547 36.2072 18.8354 37.8277V0.772766L19.7144 0.664734C20.5934 0.556702 21.4903 0.502686 22.3872 0.502686C23.2662 0.502686 24.1452 0.556702 25.0063 0.664734ZM25.9391 37.8277C32.7198 36.2072 37.5991 30.0854 37.5991 22.9733C37.5991 15.8612 32.7198 9.73942 25.9391 8.11894V37.8277Z" fill="#016533"/>
<path d="M60.668 13.0882H71.5208V7.34448H54.3895V47.4604H71.5208V41.7347H60.668V29.9952H69.9063L65.637 26.4662H65.6549L65.637 26.4302L68.6865 26.4122L67.2335 24.2515H60.668V13.0882ZM28.9707 50.1252H19.0327L19.2839 51.6556H28.7016L28.2531 54.3024H19.7323L19.9835 55.8509H28.002L27.5535 58.4977H20.4319H17.221L16.5214 54.3024L16.0729 51.6556L15.3733 47.4604H18.5843H29.4012L28.9707 50.1252ZM72.3639 29.9952H75.3955V47.4604H92.5268V41.7347H81.6919V29.9952H90.3024V24.2515H81.6919V13.0882H92.5268V7.34448H75.3955V24.2515H69.6552L74.0322 27.8706L70.9467 27.8886L72.3639 29.9952ZM96.4194 47.4604H106.357C112.636 47.4604 115.721 43.9674 115.721 37.5575V17.2654C115.721 10.8375 112.636 7.34448 106.357 7.34448H96.4194V47.4604ZM106.232 13.0882C108.241 13.0882 109.443 14.1145 109.443 16.9774V37.8455C109.443 40.7084 108.241 41.7347 106.232 41.7347H102.698V13.0882H106.232ZM119.722 47.4604H126V7.34448H119.722V47.4604Z" fill="#00B8C9"/>
</g>
<defs>
<clipPath id="clip0_110_11">
<rect width="126" height="59" fill="white"/>
</clipPath>
</defs>
</svg>
